<svg width="61" height="62" viewBox="0 0 61 62" fill="none" xmlns="http://www.w3.org/2000/svg">
<path d="M13.1058 25.4041C12.9271 26.0519 12.8378 26.8561 12.8378 27.8167V35.2555C12.8378 36.1267 12.9271 36.9421 13.1058 37.7016H10.9613C11.0283 37.4559 11.073 37.2213 11.0954 36.9979C11.1177 36.7522 11.1512 36.5065 11.1959 36.2607C10.1906 37.333 9.02902 37.8691 7.71103 37.8691C6.41539 37.8691 5.3543 37.4 4.52776 36.4618C3.70123 35.5012 3.28796 34.1609 3.28796 32.4408V27.8167C3.28796 27.0348 3.22095 26.2306 3.08691 25.4041H5.19793C5.01922 26.2083 4.92986 27.0125 4.92986 27.8167V32.4408C4.92986 33.6918 5.13091 34.6188 5.53301 35.222C6.11381 36.1602 6.94035 36.6293 8.01261 36.6293C9.08487 36.6293 9.93374 36.2049 10.5592 35.356C11.006 34.6859 11.2294 33.7141 11.2294 32.4408V27.8167C11.2294 27.0125 11.14 26.2083 10.9613 25.4041H13.1058Z" fill="white"/>
<path d="M17.7923 26.4094C17.7252 27.1465 17.6917 27.6156 17.6917 27.8167V31.7036H18.6635C19.4677 31.7036 20.1043 31.4691 20.5734 31C21.0649 30.5085 21.3106 29.8719 21.3106 29.09C21.3106 28.3081 21.0872 27.6715 20.6405 27.18C20.082 26.6663 19.423 26.4094 18.6635 26.4094H17.7923ZM19.2666 32.7089L18.6635 32.7424H17.6917V35.2555C17.6917 36.1267 17.7811 36.9421 17.9598 37.7016H15.8488C15.9828 36.8974 16.0498 36.082 16.0498 35.2555V27.8167C16.0498 27.0348 15.9828 26.2306 15.8488 25.4041H18.6635C20.0038 25.4041 21.0649 25.7504 21.8467 26.4429C22.6733 27.1354 23.0865 28.0177 23.0865 29.09C23.0865 30.1399 22.6733 31.0111 21.8467 31.7036C21.6904 31.8153 21.534 31.927 21.3776 32.0387C21.2213 32.1504 21.0537 32.2398 20.875 32.3068L23.1871 35.7916C23.6562 36.4841 24.17 37.1208 24.7284 37.7016H22.2824C21.8579 36.7187 21.467 35.9927 21.1096 35.5236L19.2666 32.7089Z" fill="white"/>
<path d="M27.9749 35.2555C27.9749 35.4119 28.0084 35.8922 28.0754 36.6963H30.2534C31.147 36.6963 31.9623 36.6182 32.6995 36.4618V37.7016H26.1319C26.266 36.8974 26.333 36.082 26.333 35.2555V27.8167C26.333 27.0348 26.266 26.2306 26.1319 25.4041H31.7278V26.6439C30.7896 26.4875 29.9742 26.4094 29.2817 26.4094H28.0754C28.0531 26.6551 28.0307 26.9008 28.0084 27.1465C27.986 27.3923 27.9749 27.6156 27.9749 27.8167V31.0335H29.2817C29.8402 31.0335 30.6555 30.9441 31.7278 30.7654V32.2733C31.0353 32.1169 30.2199 32.0387 29.2817 32.0387H27.9749V35.2555Z" fill="white"/>
<path d="M33.8457 37.7016C34.3372 37.2548 34.8733 36.6293 35.4541 35.8251L38.3693 31.7371L35.3871 27.3141C34.9627 26.7109 34.4489 26.0743 33.8457 25.4041H36.3253C36.5487 26.0966 36.9173 26.8226 37.4311 27.5821L39.3411 30.3633L41.3515 27.5486C41.7983 26.9231 42.2004 26.2083 42.5578 25.4041H44.4678C43.8647 25.9849 43.3285 26.5992 42.8594 27.2471L39.9442 31.335L42.9264 35.7916C43.2392 36.2831 43.753 36.9197 44.4678 37.7016H41.9882C41.7425 37.0761 41.3739 36.3501 40.8824 35.5236L38.9725 32.7089L36.962 35.5571C36.4705 36.2049 36.0573 36.9197 35.7222 37.7016H33.8457Z" fill="white"/>
<path d="M55.364 28.6544C54.4035 27.046 53.2307 26.2418 51.8457 26.2418C50.483 26.2418 49.3996 26.7891 48.5954 27.8837C47.7912 28.9783 47.3891 30.2069 47.3891 31.5696C47.3891 32.9323 47.7688 34.1274 48.5284 35.155C49.3996 36.2719 50.4718 36.8304 51.7451 36.8304C53.3982 36.8304 54.8055 35.9927 55.9672 34.3173H56.0677V36.0262C54.8391 37.2548 53.387 37.8691 51.7116 37.8691C50.0362 37.8691 48.5954 37.266 47.3891 36.0597C46.2051 34.8311 45.6132 33.3344 45.6132 31.5696C45.6132 29.8048 46.2051 28.3081 47.3891 27.0795C48.573 25.8509 49.958 25.2366 51.5441 25.2366C53.1301 25.2366 54.4258 25.661 55.431 26.5099V28.6544H55.364Z" fill="white"/>
<path d="M54.0979 17.1781C46.4642 3.95607 29.5572 -0.574126 16.3352 7.05961C13.1863 8.87762 10.5333 11.2189 8.41973 13.909C6.09034 16.8737 4.41483 20.2629 3.45522 23.8437H0C1.02957 19.509 2.98679 15.4 5.78492 11.8388C8.15799 8.81849 11.1349 6.19284 14.6598 4.15772C29.4845 -4.40132 48.4408 0.677996 56.9998 15.5027C58.5438 18.177 59.644 20.9858 60.3232 23.8437H56.8662C56.2533 21.5618 55.3354 19.3215 54.0979 17.1781Z" fill="url(#paint0_linear_134_2706)"/>
<path d="M51.618 23.8437C51.1437 22.4266 50.5213 21.0356 49.7451 19.6912C43.4993 8.87318 29.6663 5.16666 18.8483 11.4124C13.8629 14.2908 10.3878 18.7804 8.7011 23.8437H12.2677C13.8154 19.9672 16.6283 16.5633 20.5237 14.3143C29.7391 8.99384 41.5227 12.1513 46.8432 21.3666C47.3097 22.1746 47.711 23.0023 48.0488 23.8437H51.618Z" fill="url(#paint1_linear_134_2706)"/>
<path d="M47.722 38.9224H51.3432C49.5705 43.6712 46.1989 47.8556 41.4663 50.5879C30.6483 56.8337 16.8154 53.1272 10.5696 42.3092C9.93514 41.2103 9.40338 40.0803 8.97134 38.9303H3.66845C4.27344 40.9449 5.11946 42.9217 6.21675 44.8223C9.88579 51.1772 15.6935 55.5227 22.2093 57.4772C29.2525 59.59 37.1116 58.9059 43.9794 54.9408C50.342 51.2673 54.6918 45.4466 56.6421 38.9224H60.1228C58.0863 46.6245 53.0994 53.5445 45.6548 57.8426C37.9547 62.2883 29.1371 63.0537 21.2465 60.6868C13.9451 58.4965 7.42779 53.6215 3.31486 46.4977C1.90888 44.0624 0.870987 41.5159 0.183836 38.9224H0.187542V38.0926H23.9727V38.9283C27.106 41.3708 31.5313 41.8144 35.1835 39.7058C35.5948 39.4684 35.983 39.2062 36.3472 38.9224H40.9729C39.9057 40.3809 38.5246 41.6461 36.8589 42.6077C30.8768 46.0615 23.3388 44.3797 19.3503 38.9303H12.5962C12.8571 39.5062 13.1487 40.0747 13.4715 40.6338C18.7919 49.8491 30.5756 53.0065 39.7909 47.686C43.4276 45.5864 46.1209 42.4801 47.722 38.9224Z" fill="url(#paint2_linear_134_2706)"/>
<path d="M41.4904 23.8437C37.6707 17.7857 29.7123 15.7804 23.4557 19.3926C21.5048 20.519 19.9442 22.0617 18.8213 23.8437H23.0943C23.6911 23.2556 24.3717 22.733 25.1311 22.2945C29.1397 19.9801 34.0798 20.7405 37.2204 23.8437H41.4904Z" fill="url(#paint3_linear_134_2706)"/>
<path d="M37.2287 24.6828L60.3232 24.6828V23.8451H37.2287V24.6828Z" fill="url(#paint4_linear_134_2706)"/>
<defs>
<linearGradient id="paint0_linear_134_2706" x1="30.1616" y1="5.9574e-08" x2="27.431" y2="77.9976" gradientUnits="userSpaceOnUse">
<stop stop-color="#21364B"/>
<stop offset="1" stop-color="white"/>
<stop offset="1" stop-color="white" stop-opacity="0"/>
</linearGradient>
<linearGradient id="paint1_linear_134_2706" x1="30.1616" y1="5.9574e-08" x2="27.431" y2="77.9976" gradientUnits="userSpaceOnUse">
<stop stop-color="#21364B"/>
<stop offset="1" stop-color="white"/>
<stop offset="1" stop-color="white" stop-opacity="0"/>
</linearGradient>
<linearGradient id="paint2_linear_134_2706" x1="30.1616" y1="5.9574e-08" x2="27.431" y2="77.9976" gradientUnits="userSpaceOnUse">
<stop stop-color="#21364B"/>
<stop offset="1" stop-color="white"/>
<stop offset="1" stop-color="white" stop-opacity="0"/>
</linearGradient>
<linearGradient id="paint3_linear_134_2706" x1="30.1616" y1="5.9574e-08" x2="27.431" y2="77.9976" gradientUnits="userSpaceOnUse">
<stop stop-color="#21364B"/>
<stop offset="1" stop-color="white"/>
<stop offset="1" stop-color="white" stop-opacity="0"/>
</linearGradient>
<linearGradient id="paint4_linear_134_2706" x1="30.1616" y1="5.9574e-08" x2="27.431" y2="77.9976" gradientUnits="userSpaceOnUse">
<stop stop-color="#21364B"/>
<stop offset="1" stop-color="white"/>
<stop offset="1" stop-color="white" stop-opacity="0"/>
</linearGradient>
</defs>
</svg>
