<svg width="46" height="47" viewBox="0 0 46 47" fill="none" xmlns="http://www.w3.org/2000/svg">
<path d="M9.93508 19.258C9.79961 19.7491 9.73187 20.3587 9.73187 21.0869V26.726C9.73187 27.3864 9.79961 28.0045 9.93508 28.5803H8.3094C8.3602 28.394 8.39407 28.2162 8.411 28.0468C8.42794 27.8606 8.45334 27.6743 8.48721 27.488C7.72517 28.3009 6.84459 28.7073 5.84547 28.7073C4.86328 28.7073 4.05891 28.3517 3.43234 27.6404C2.80578 26.9122 2.4925 25.8962 2.4925 24.5923V21.0869C2.4925 20.4942 2.44169 19.8846 2.34009 19.258H3.94037C3.8049 19.8676 3.73716 20.4773 3.73716 21.0869V24.5923C3.73716 25.5406 3.88957 26.2433 4.19438 26.7006C4.63467 27.4118 5.26124 27.7674 6.07408 27.7674C6.88692 27.7674 7.53042 27.4457 8.00458 26.8022C8.34326 26.2942 8.51261 25.5575 8.51261 24.5923V21.0869C8.51261 20.4773 8.44487 19.8676 8.3094 19.258H9.93508Z" fill="white"/>
<path d="M13.4877 20.02C13.4369 20.5789 13.4115 20.9345 13.4115 21.0869V24.0334H14.1481C14.7578 24.0334 15.2404 23.8556 15.596 23.5C15.9686 23.1275 16.1548 22.6448 16.1548 22.0521C16.1548 21.4594 15.9855 20.9768 15.6468 20.6043C15.2234 20.2148 14.7239 20.02 14.1481 20.02H13.4877ZM14.6053 24.7955L14.1481 24.8209H13.4115V26.726C13.4115 27.3864 13.4792 28.0045 13.6147 28.5803H12.0144C12.116 27.9706 12.1668 27.3525 12.1668 26.726V21.0869C12.1668 20.4942 12.116 19.8846 12.0144 19.258H14.1481C15.1642 19.258 15.9686 19.5205 16.5612 20.0454C17.1878 20.5704 17.5011 21.2393 17.5011 22.0521C17.5011 22.848 17.1878 23.5085 16.5612 24.0334C16.4427 24.1181 16.3242 24.2028 16.2056 24.2874C16.0871 24.3721 15.9601 24.4399 15.8246 24.4907L17.5773 27.1324C17.9329 27.6574 18.3224 28.14 18.7458 28.5803H16.8915C16.5697 27.8352 16.2734 27.2848 16.0024 26.9292L14.6053 24.7955Z" fill="white"/>
<path d="M21.2068 26.726C21.2068 26.8445 21.2322 27.2086 21.283 27.8182H22.9341C23.6114 27.8182 24.2295 27.759 24.7883 27.6404V28.5803H19.8097C19.9113 27.9706 19.9621 27.3525 19.9621 26.726V21.0869C19.9621 20.4942 19.9113 19.8846 19.8097 19.258H24.0517V20.1978C23.3405 20.0793 22.7224 20.02 22.1974 20.02H21.283C21.266 20.2063 21.2491 20.3926 21.2322 20.5789C21.2152 20.7651 21.2068 20.9345 21.2068 21.0869V23.5254H22.1974C22.6208 23.5254 23.2389 23.4577 24.0517 23.3222V24.4653C23.5267 24.3467 22.9087 24.2874 22.1974 24.2874H21.2068V26.726Z" fill="white"/>
<path d="M25.6573 28.5803C26.0298 28.2416 26.4362 27.7674 26.8765 27.1578L29.0864 24.0588L26.8257 20.7059C26.504 20.2486 26.1145 19.766 25.6573 19.258H27.5369C27.7063 19.7829 27.9857 20.3333 28.3752 20.9091L29.8231 23.0174L31.3471 20.8837C31.6858 20.4095 31.9906 19.8676 32.2616 19.258H33.7095C33.2522 19.6983 32.8458 20.164 32.4902 20.6551L30.2803 23.754L32.541 27.1324C32.7781 27.5049 33.1676 27.9876 33.7095 28.5803H31.8298C31.6435 28.1061 31.3641 27.5557 30.9915 26.9292L29.5437 24.7955L28.0196 26.9546C27.647 27.4457 27.3337 27.9876 27.0797 28.5803H25.6573Z" fill="white"/>
<path d="M41.9695 21.7219C41.2413 20.5027 40.3523 19.893 39.3024 19.893C38.2694 19.893 37.4481 20.3079 36.8384 21.1377C36.2288 21.9675 35.924 22.8988 35.924 23.9318C35.924 24.9648 36.2119 25.8708 36.7876 26.6498C37.4481 27.4965 38.2609 27.9198 39.2262 27.9198C40.4793 27.9198 41.5462 27.2848 42.4267 26.0147H42.5029V27.3102C41.5716 28.2416 40.4708 28.7073 39.2008 28.7073C37.9307 28.7073 36.8384 28.2501 35.924 27.3356C35.0265 26.4042 34.5777 25.2696 34.5777 23.9318C34.5777 22.594 35.0265 21.4594 35.924 20.5281C36.8215 19.5967 37.8714 19.131 39.0738 19.131C40.2761 19.131 41.2583 19.4527 42.0203 20.0962V21.7219H41.9695Z" fill="white"/>
<path d="M41.0097 13.0221C35.2228 2.99896 22.4063 -0.435224 12.3832 5.35164C9.99609 6.72981 7.98496 8.50465 6.3827 10.5439C4.61687 12.7913 3.34673 15.3606 2.61928 18.0751H0C0.780484 14.789 2.26418 11.6742 4.38535 8.97455C6.18429 6.68498 8.44097 4.69457 11.1131 3.15182C22.3512 -3.33648 36.7212 0.513964 43.2095 11.752C44.38 13.7793 45.214 15.9086 45.7289 18.0751H43.1083C42.6436 16.3452 41.9478 14.647 41.0097 13.0221Z" fill="url(#paint0_linear_1363_1236)"/>
<path d="M39.1298 18.0751C38.7703 17.0008 38.2984 15.9463 37.71 14.9272C32.9753 6.72644 22.489 3.91666 14.2883 8.65136C10.509 10.8333 7.87466 14.2368 6.596 18.0751H9.29968C10.473 15.1364 12.6054 12.5561 15.5583 10.8512C22.5441 6.81791 31.4769 9.21143 35.5101 16.1973C35.8638 16.8098 36.168 17.4373 36.4241 18.0751H39.1298Z" fill="url(#paint1_linear_1363_1236)"/>
<path d="M36.1763 29.5057H38.9214C37.5776 33.1056 35.0217 36.2776 31.4341 38.3489C23.2334 43.0836 12.7471 40.2738 8.01242 32.0731C7.53147 31.24 7.12837 30.3834 6.80086 29.5117H2.78092C3.23954 31.0388 3.88088 32.5374 4.7127 33.9782C7.49407 38.7956 11.8967 42.0898 16.8361 43.5715C22.1753 45.1731 28.133 44.6545 33.3392 41.6486C38.1625 38.8639 41.4599 34.4514 42.9384 29.5057H45.577C44.0332 35.3444 40.2527 40.5902 34.6093 43.8484C28.7721 47.2185 22.0878 47.7988 16.1062 46.0045C10.5713 44.3441 5.63075 40.6485 2.51288 35.2482C1.44705 33.4022 0.660264 31.4717 0.139359 29.5057H0.142169V28.8766H18.1728V29.5102C20.5481 31.3617 23.9028 31.698 26.6714 30.0996C26.9832 29.9196 27.2774 29.7209 27.5536 29.5057H31.0601C30.2511 30.6113 29.2041 31.5704 27.9415 32.2994C23.4066 34.9176 17.6923 33.6427 14.6688 29.5117H9.54875C9.74654 29.9483 9.96756 30.3792 10.2122 30.803C14.2455 37.7888 23.1782 40.1824 30.1641 36.1491C32.921 34.5574 34.9626 32.2027 36.1763 29.5057Z" fill="url(#paint2_linear_1363_1236)"/>
<path d="M31.4524 18.0751C28.5569 13.4827 22.5239 11.9625 17.7809 14.7009C16.302 15.5547 15.119 16.7242 14.2678 18.0751H17.507C17.9594 17.6292 18.4753 17.2331 19.051 16.9007C22.0898 15.1462 25.8347 15.7226 28.2155 18.0751H31.4524Z" fill="url(#paint3_linear_1363_1236)"/>
<path d="M28.2217 18.7111H45.7289V18.0761H28.2217V18.7111Z" fill="url(#paint4_linear_1363_1236)"/>
<defs>
<linearGradient id="paint0_linear_1363_1236" x1="22.8644" y1="4.51609e-08" x2="20.7945" y2="59.1272" gradientUnits="userSpaceOnUse">
<stop stop-color="#21364B"/>
<stop offset="1" stop-color="white"/>
<stop offset="1" stop-color="white" stop-opacity="0"/>
</linearGradient>
<linearGradient id="paint1_linear_1363_1236" x1="22.8644" y1="4.51609e-08" x2="20.7945" y2="59.1272" gradientUnits="userSpaceOnUse">
<stop stop-color="#21364B"/>
<stop offset="1" stop-color="white"/>
<stop offset="1" stop-color="white" stop-opacity="0"/>
</linearGradient>
<linearGradient id="paint2_linear_1363_1236" x1="22.8644" y1="4.51609e-08" x2="20.7945" y2="59.1272" gradientUnits="userSpaceOnUse">
<stop stop-color="#21364B"/>
<stop offset="1" stop-color="white"/>
<stop offset="1" stop-color="white" stop-opacity="0"/>
</linearGradient>
<linearGradient id="paint3_linear_1363_1236" x1="22.8644" y1="4.51609e-08" x2="20.7945" y2="59.1272" gradientUnits="userSpaceOnUse">
<stop stop-color="#21364B"/>
<stop offset="1" stop-color="white"/>
<stop offset="1" stop-color="white" stop-opacity="0"/>
</linearGradient>
<linearGradient id="paint4_linear_1363_1236" x1="22.8644" y1="4.51609e-08" x2="20.7945" y2="59.1272" gradientUnits="userSpaceOnUse">
<stop stop-color="#21364B"/>
<stop offset="1" stop-color="white"/>
<stop offset="1" stop-color="white" stop-opacity="0"/>
</linearGradient>
</defs>
</svg>
